<svg width="14" height="15" viewBox="0 0 14 15" fill="none" xmlns="http://www.w3.org/2000/svg">
<path d="M3.6724 9.8563L3.84807 9.95984L3.94818 9.7822L5.13786 7.67132L5.13792 7.67122C5.19758 7.56522 5.19758 7.43478 5.13792 7.32878L4.96363 7.42688L5.13829 7.32945C5.07768 7.22079 4.96337 7.15375 4.8399 7.15375H3.8434L4.74131 5.56044L4.83749 5.38976L4.66883 5.29007L4.42138 5.14382L4.24562 5.03995L4.14538 5.2178L2.95571 7.32868L2.95565 7.32878C2.89599 7.43478 2.89599 7.56522 2.95565 7.67122L3.12994 7.57313L2.95528 7.67055C3.01588 7.77921 3.1302 7.84625 3.25367 7.84625H4.2502L3.35225 9.43998L3.25597 9.61087L3.42495 9.71046L3.6724 9.8563ZM7.16545 13.5938V3.83303C7.68226 3.98615 8.06617 4.47682 8.06617 5.0625V9.53125C8.06617 10.6138 8.92685 11.5025 9.99516 11.5025C11.0635 11.5025 11.9242 10.6138 11.9242 9.53125V6.5962C12.828 6.42995 13.5104 5.62051 13.5104 4.65625V2.625C13.5104 2.43828 13.3615 2.27875 13.1676 2.27875H12.7173V1.40625C12.7173 1.21953 12.5684 1.06 12.3745 1.06C12.1806 1.06 12.0318 1.21953 12.0318 1.40625V2.27875H11.131V1.40625C11.131 1.21953 10.9822 1.06 10.7883 1.06C10.5944 1.06 10.4455 1.21953 10.4455 1.40625V2.27875H9.99516C9.80126 2.27875 9.6524 2.43828 9.6524 2.625V4.65625C9.6524 5.62042 10.3347 6.4303 11.2386 6.59627V9.53125C11.2386 10.2407 10.6761 10.81 9.99516 10.81C9.31425 10.81 8.75169 10.2407 8.75169 9.53125V5.0625C8.75169 4.09833 8.0694 3.28845 7.16545 3.12248V2.21875C7.16545 1.58434 6.66048 1.06 6.02958 1.06H2.06399C1.43309 1.06 0.928113 1.58434 0.928113 2.21875V13.5938C0.928113 13.7805 1.07698 13.94 1.27087 13.94H6.82269C7.01659 13.94 7.16545 13.7805 7.16545 13.5938ZM1.61363 2.21875C1.61363 1.95738 1.82048 1.7525 2.06399 1.7525H6.02958C6.27308 1.7525 6.47993 1.95738 6.47993 2.21875V13.2475H1.61363V2.21875ZM12.8249 3.78375V4.65625C12.8249 5.36572 12.2623 5.935 11.5814 5.935C10.9005 5.935 10.3379 5.36572 10.3379 4.65625V3.78375H12.8249ZM10.3379 2.97125H12.8245V3.09125H10.3379V2.97125Z" fill="#9F9F9F" stroke="#9F9F9F" stroke-width="0.4"/>
</svg>
