<svg width="19" height="13" viewBox="0 0 19 13" fill="none" xmlns="http://www.w3.org/2000/svg">
<path d="M18.1177 3.56571C13.0993 -1.18944 5.29416 -1.1877 0.277698 3.56571C0.0890496 3.74446 0.0853673 4.04712 0.267784 4.23254L1.23765 5.21828C1.41157 5.39529 1.69143 5.39906 1.87215 5.22931C6.00542 1.3502 12.3894 1.34933 16.5236 5.22931C16.7043 5.39906 16.9841 5.395 17.1581 5.21828L18.1279 4.23254C18.3101 4.04712 18.3064 3.74446 18.1177 3.56571ZM9.19771 9.28571C8.1964 9.28571 7.38488 10.1171 7.38488 11.1429C7.38488 12.1686 8.1964 13 9.19771 13C10.199 13 11.0106 12.1686 11.0106 11.1429C11.0106 10.1171 10.199 9.28571 9.19771 9.28571ZM14.9385 6.86011C11.6737 3.90232 6.71809 3.90551 3.45696 6.86011C3.26152 7.03712 3.25529 7.34442 3.44082 7.53187L4.41635 8.51819C4.58631 8.68998 4.85993 8.70158 5.04093 8.54141C7.41887 6.43558 10.9819 6.44022 13.3542 8.54141C13.5352 8.70158 13.8088 8.69027 13.9788 8.51819L14.9543 7.53187C15.1401 7.34442 15.1336 7.03683 14.9385 6.86011Z" fill="#9F9F9F"/>
</svg>
