<svg width="12" height="18" viewBox="0 0 12 18" fill="none" xmlns="http://www.w3.org/2000/svg">
<path d="M5.64698 17.1371C1.3058 9.94166 0.5 9.20319 0.5 6.55875C0.5 2.93644 3.06832 0 6.23653 0C9.40474 0 11.9731 2.93644 11.9731 6.55875C11.9731 9.20319 11.1673 9.94166 6.82608 17.1371C6.54119 17.6076 5.93184 17.6076 5.64698 17.1371ZM6.23653 9.29156C7.55662 9.29156 8.62675 8.06805 8.62675 6.55875C8.62675 5.04945 7.55662 3.82594 6.23653 3.82594C4.91644 3.82594 3.84631 5.04945 3.84631 6.55875C3.84631 8.06805 4.91644 9.29156 6.23653 9.29156Z" fill="#005687"/>
</svg>
