<svg width="16" height="109" viewBox="0 0 16 109" fill="none" xmlns="http://www.w3.org/2000/svg">
<g id="From To icon">
<g id="To, icon">
<path id="Vector" d="M7.14698 108.137C2.8058 100.942 2 100.203 2 97.5587C2 93.9364 4.56832 91 7.73653 91C10.9047 91 13.4731 93.9364 13.4731 97.5587C13.4731 100.203 12.6673 100.942 8.32608 108.137C8.04119 108.608 7.43184 108.608 7.14698 108.137ZM7.73653 100.292C9.05662 100.292 10.1267 99.068 10.1267 97.5587C10.1267 96.0495 9.05662 94.8259 7.73653 94.8259C6.41644 94.8259 5.34631 96.0495 5.34631 97.5587C5.34631 99.068 6.41644 100.292 7.73653 100.292Z" fill="#005687"/>
</g>
<g id="dots">
<g id="8">
<ellipse cx="8.09501" cy="81.7126" rx="0.715" ry="0.712581" fill="#005687"/>
<ellipse cx="8.09501" cy="81.7126" rx="0.715" ry="0.712581" fill="#005687"/>
<ellipse cx="8.09501" cy="81.7126" rx="0.715" ry="0.712581" fill="#005687"/>
<ellipse cx="8.09501" cy="81.7126" rx="0.715" ry="0.712581" fill="#005687"/>
<ellipse cx="8.09501" cy="81.7126" rx="0.715" ry="0.712581" fill="#005687"/>
</g>
<g id="7">
<ellipse cx="8.09501" cy="73.7126" rx="0.715" ry="0.712581" fill="#005687"/>
<ellipse cx="8.09501" cy="73.7126" rx="0.715" ry="0.712581" fill="#005687"/>
<ellipse cx="8.09501" cy="73.7126" rx="0.715" ry="0.712581" fill="#005687"/>
<ellipse cx="8.09501" cy="73.7126" rx="0.715" ry="0.712581" fill="#005687"/>
<ellipse cx="8.09501" cy="73.7126" rx="0.715" ry="0.712581" fill="#005687"/>
</g>
<g id="6">
<ellipse cx="8.09668" cy="65.5877" rx="0.715" ry="0.712581" fill="#005687"/>
<ellipse cx="8.09668" cy="65.5877" rx="0.715" ry="0.712581" fill="#005687"/>
<ellipse cx="8.09668" cy="65.5877" rx="0.715" ry="0.712581" fill="#005687"/>
<ellipse cx="8.09668" cy="65.5877" rx="0.715" ry="0.712581" fill="#005687"/>
<ellipse cx="8.09668" cy="65.5877" rx="0.715" ry="0.712581" fill="#005687"/>
</g>
<g id="5">
<ellipse cx="8.09668" cy="57.0368" rx="0.715" ry="0.712581" fill="#005687"/>
<ellipse cx="8.09668" cy="57.0368" rx="0.715" ry="0.712581" fill="#005687"/>
<ellipse cx="8.09668" cy="57.0368" rx="0.715" ry="0.712581" fill="#005687"/>
<ellipse cx="8.09668" cy="57.0368" rx="0.715" ry="0.712581" fill="#005687"/>
<ellipse cx="8.09668" cy="57.0368" rx="0.715" ry="0.712581" fill="#005687"/>
</g>
<g id="4">
<ellipse cx="8.09668" cy="48.4857" rx="0.715" ry="0.712581" fill="#005687"/>
<ellipse cx="8.09668" cy="48.4857" rx="0.715" ry="0.712581" fill="#005687"/>
<ellipse cx="8.09668" cy="48.4857" rx="0.715" ry="0.712581" fill="#005687"/>
<ellipse cx="8.09668" cy="48.4857" rx="0.715" ry="0.712581" fill="#005687"/>
<ellipse cx="8.09668" cy="48.4857" rx="0.715" ry="0.712581" fill="#005687"/>
</g>
<g id="3">
<ellipse cx="8.09668" cy="39.9349" rx="0.715" ry="0.712581" fill="#005687"/>
<ellipse cx="8.09668" cy="39.9349" rx="0.715" ry="0.712581" fill="#005687"/>
<ellipse cx="8.09668" cy="39.9349" rx="0.715" ry="0.712581" fill="#005687"/>
<ellipse cx="8.09668" cy="39.9349" rx="0.715" ry="0.712581" fill="#005687"/>
<ellipse cx="8.09668" cy="39.9349" rx="0.715" ry="0.712581" fill="#005687"/>
</g>
<g id="2">
<ellipse cx="8.09668" cy="31.3837" rx="0.715" ry="0.712581" fill="#005687"/>
<ellipse cx="8.09668" cy="31.3837" rx="0.715" ry="0.712581" fill="#005687"/>
<ellipse cx="8.09668" cy="31.3837" rx="0.715" ry="0.712581" fill="#005687"/>
<ellipse cx="8.09668" cy="31.3837" rx="0.715" ry="0.712581" fill="#005687"/>
<ellipse cx="8.09668" cy="31.3837" rx="0.715" ry="0.712581" fill="#005687"/>
</g>
<g id="1">
<ellipse cx="8.09668" cy="22.8329" rx="0.715" ry="0.712581" fill="#005687"/>
<ellipse cx="8.09668" cy="22.8329" rx="0.715" ry="0.712581" fill="#005687"/>
<ellipse cx="8.09668" cy="22.8329" rx="0.715" ry="0.712581" fill="#005687"/>
<ellipse cx="8.09668" cy="22.8329" rx="0.715" ry="0.712581" fill="#005687"/>
<ellipse cx="8.09668" cy="22.8329" rx="0.715" ry="0.712581" fill="#005687"/>
</g>
</g>
<g id="From, icon">
<circle id="Outer Circle" cx="8" cy="7.5" r="7.5" fill="#005687" fill-opacity="0.1"/>
<ellipse id="Inner Circle" cx="7.99987" cy="7.50021" rx="3.21429" ry="3.21429" fill="#005687"/>
</g>
</g>
</svg>