<svg width="16" height="15" viewBox="0 0 16 15" fill="none" xmlns="http://www.w3.org/2000/svg">
<path d="M14.7188 1.42162V6.62162H1V1.42162C1 1.18877 1.18426 1 1.41156 1H14.3072C14.5345 1 14.7188 1.18877 14.7188 1.42162Z" stroke="#9F9F9F" stroke-width="1.86559" stroke-linecap="round" stroke-linejoin="round"/>
<path d="M11.9751 3.81081H12.661" stroke="#9F9F9F" stroke-width="1.86559" stroke-linecap="round" stroke-linejoin="round"/>
<path d="M1 6.62162L1.54168 8.43769C1.71796 9.02873 2.25043 9.43243 2.85368 9.43243H3.74376" stroke="#9F9F9F" stroke-width="1.86559" stroke-linecap="round" stroke-linejoin="round"/>
<path d="M14.7189 6.62162L14.1772 8.43769C14.0009 9.02873 13.4685 9.43243 12.8652 9.43243H11.9751" stroke="#9F9F9F" stroke-width="1.86559" stroke-linecap="round" stroke-linejoin="round"/>
<path d="M6.14441 9.08108C6.14441 9.08108 6.14441 14 3.74362 14" stroke="#9F9F9F" stroke-width="1.86559" stroke-linecap="round" stroke-linejoin="round"/>
<path d="M9.57422 9.08108C9.57422 9.08108 9.57422 14 11.975 14" stroke="#9F9F9F" stroke-width="1.86559" stroke-linecap="round" stroke-linejoin="round"/>
<path d="M7.85944 9.08108V14" stroke="#9F9F9F" stroke-width="1.86559" stroke-linecap="round" stroke-linejoin="round"/>
</svg>
