<svg xmlns="http://www.w3.org/2000/svg" width="22" height="22" viewBox="0 0 22 22" fill="none">
  <path d="M0.000549316 10.9897C0.000549316 10.7413 0.0834118 10.524 0.259495 10.3481C0.435578 10.1825 0.653092 10.0997 0.880964 10.0997H2.99396C3.23219 10.0997 3.42899 10.1825 3.59471 10.3584C3.75008 10.5343 3.83294 10.7413 3.83294 10.9897C3.83294 11.238 3.76044 11.445 3.60507 11.6209C3.4497 11.7968 3.24255 11.8796 3.00432 11.8796H0.891322C0.653092 11.8796 0.445936 11.7968 0.269853 11.6209C0.0937699 11.445 0.000549316 11.238 0.000549316 10.9897ZM2.96288 18.1609C2.96288 17.9229 3.04575 17.7159 3.20111 17.5296L4.72371 16.0499C4.87908 15.8843 5.08624 15.8119 5.33482 15.8119C5.58341 15.8119 5.79057 15.8946 5.95629 16.0499C6.12202 16.2051 6.20488 16.4017 6.20488 16.6397C6.20488 16.8881 6.12202 17.1157 5.95629 17.302L4.48548 18.7714C4.06081 19.1025 3.63614 19.1025 3.21147 18.7714C3.04575 18.6058 2.96288 18.3989 2.96288 18.1609ZM2.96288 3.83913C2.96288 3.60113 3.04575 3.39417 3.20111 3.2079C3.40827 3.03198 3.62579 2.9492 3.86401 2.9492C4.09189 2.9492 4.29904 3.03198 4.47513 3.19755L5.95629 4.71872C6.12202 4.87394 6.20488 5.0809 6.20488 5.32926C6.20488 5.57761 6.12202 5.78457 5.95629 5.95014C5.79057 6.11571 5.58341 6.19849 5.33482 6.19849C5.08624 6.19849 4.87908 6.11571 4.72371 5.95014L3.21147 4.47037C3.04575 4.3048 2.96288 4.08749 2.96288 3.83913ZM5.60413 10.9897C5.60413 10.0273 5.84236 9.127 6.32917 8.29915C6.81599 7.47131 7.46853 6.80903 8.30752 6.32267C9.1465 5.83631 10.0373 5.59831 11.0005 5.59831C11.7256 5.59831 12.4196 5.74318 13.0928 6.03293C13.7557 6.32267 14.3358 6.70555 14.8122 7.19191C15.299 7.67827 15.6823 8.24741 15.9619 8.90969C16.2416 9.57197 16.3866 10.2756 16.3866 11C16.3866 11.9727 16.1484 12.873 15.6616 13.7008C15.1747 14.5287 14.5222 15.1806 13.6936 15.667C12.865 16.1533 11.9638 16.3913 10.9902 16.3913C10.0166 16.3913 9.11543 16.1533 8.2868 15.667C7.45818 15.1806 6.80563 14.5287 6.31882 13.7008C5.85272 12.8627 5.60413 11.9624 5.60413 10.9897ZM7.36496 10.9897C7.36496 12.0038 7.71712 12.8627 8.43181 13.5767C9.13614 14.2907 9.99584 14.6529 11.0109 14.6529C12.026 14.6529 12.8857 14.2907 13.6004 13.5767C14.3151 12.8627 14.6776 12.0038 14.6776 10.9897C14.6776 9.99624 14.3151 9.14769 13.6004 8.43368C12.8857 7.73001 12.026 7.37817 11.0109 7.37817C10.0062 7.37817 9.1465 7.73001 8.44217 8.43368C7.71712 9.14769 7.36496 9.99624 7.36496 10.9897ZM10.1201 19.0404C10.1201 18.7921 10.203 18.5851 10.3791 18.4196C10.5552 18.254 10.7623 18.1712 11.0005 18.1712C11.2491 18.1712 11.4667 18.254 11.6324 18.4196C11.7981 18.5851 11.881 18.7921 11.881 19.0404V21.0997C11.881 21.3481 11.7981 21.5654 11.622 21.7413C11.4459 21.9172 11.2388 22 11.0005 22C10.7623 22 10.5448 21.9172 10.3791 21.7413C10.203 21.5654 10.1201 21.3481 10.1201 21.0997V19.0404ZM10.1201 3.00094V0.889934C10.1201 0.651929 10.203 0.444967 10.3791 0.26905C10.5552 0.0931329 10.7623 0 11.0109 0C11.2595 0 11.4563 0.0827846 11.6324 0.258702C11.8085 0.434619 11.8913 0.64158 11.8913 0.879586V3.00094C11.8913 3.23895 11.8085 3.43556 11.6324 3.60113C11.4563 3.7667 11.2491 3.83913 11.0109 3.83913C10.7727 3.83913 10.5552 3.75635 10.3894 3.60113C10.2237 3.44591 10.1201 3.23895 10.1201 3.00094ZM15.8376 16.6397C15.8376 16.4017 15.9205 16.2051 16.0759 16.0602C16.2312 15.8946 16.428 15.8222 16.6559 15.8222C16.9045 15.8222 17.1117 15.905 17.2774 16.0602L18.7896 17.54C18.9554 17.7159 19.0382 17.9332 19.0382 18.1712C19.0382 18.4092 18.9554 18.6162 18.7896 18.7817C18.3753 19.1025 17.961 19.1025 17.5467 18.7817L16.0759 17.3123C15.9205 17.1261 15.8376 16.9087 15.8376 16.6397ZM15.8376 5.3396C15.8376 5.0809 15.9205 4.87394 16.0759 4.72907L17.5467 3.2079C17.7228 3.04233 17.9299 2.95955 18.1578 2.95955C18.4064 2.95955 18.6135 3.04233 18.7793 3.21825C18.9554 3.39417 19.0382 3.60113 19.0382 3.83913C19.0382 4.09784 18.9554 4.31515 18.7896 4.48071L17.2774 5.96049C17.0909 6.12606 16.8838 6.20884 16.6559 6.20884C16.4177 6.20884 16.2312 6.12606 16.0759 5.96049C15.9205 5.79492 15.8376 5.58796 15.8376 5.3396ZM18.1785 10.9897C18.1785 10.7413 18.2614 10.5343 18.4271 10.3481C18.5928 10.1825 18.7896 10.0997 19.0175 10.0997H21.1098C21.348 10.0997 21.5552 10.1929 21.7312 10.3688C21.9073 10.5447 22.0005 10.7516 22.0005 10.9897C22.0005 11.2277 21.9073 11.4346 21.7312 11.6105C21.5552 11.7865 21.348 11.8692 21.1098 11.8692H19.0175C18.7793 11.8692 18.5721 11.7865 18.4167 11.6105C18.2614 11.4346 18.1785 11.238 18.1785 10.9897Z" fill="black"/>
</svg>