<svg xmlns="http://www.w3.org/2000/svg" width="20" height="22" viewBox="0 0 20 22" fill="none">
  <path d="M4.40055 0C2.4006 0 0.000549316 1.09017 0.000549316 4.02761V12.0255V17.6C0.000549316 17.6 0.000549316 19.0667 1.46722 19.0667V20.5333C1.46722 20.5333 1.46722 22 2.93388 22C4.40055 22 4.40055 20.5333 4.40055 20.5333V19.0667H14.6672V20.5333C14.6672 20.5333 14.6672 22 16.1339 22C17.6005 22 17.6005 20.5333 17.6005 20.5333V19.0667C17.6005 19.0667 19.0672 19.0667 19.0672 17.6V4.02761C19.0672 1.02755 17.2544 0 15.2545 0L4.40055 0ZM4.76722 2.2H14.3005C14.5037 2.2 14.6672 2.36353 14.6672 2.56667C14.6672 2.7698 14.5037 2.93333 14.3005 2.93333H4.76722C4.56408 2.93333 4.40055 2.7698 4.40055 2.56667C4.40055 2.36353 4.56408 2.2 4.76722 2.2ZM2.93388 4.4H16.1339C17.6005 4.4 17.6005 5.81797 17.6005 5.81797V10.2667C17.6005 10.2667 17.6005 11.7333 16.1339 11.7333H2.93388C1.46722 11.7333 1.46722 10.2667 1.46722 10.2667V5.86667C1.46722 5.86667 1.46722 4.4 2.93388 4.4ZM2.93388 14.6667C3.74392 14.6667 4.40055 15.3233 4.40055 16.1333C4.40055 16.9434 3.74392 17.6 2.93388 17.6C2.12384 17.6 1.46722 16.9434 1.46722 16.1333C1.46722 15.3233 2.12384 14.6667 2.93388 14.6667ZM16.1339 14.6667C16.9439 14.6667 17.6005 15.3233 17.6005 16.1333C17.6005 16.9434 16.9439 17.6 16.1339 17.6C15.3238 17.6 14.6672 16.9434 14.6672 16.1333C14.6672 15.3233 15.3238 14.6667 16.1339 14.6667Z" fill="black"/>
</svg>