<svg xmlns="http://www.w3.org/2000/svg" width="23" height="24" viewBox="0 0 23 24" fill="none">
  <path d="M4.16504 0.595C4.16504 0.266393 4.43142 0 4.76004 0C5.08866 0 5.35504 0.266393 5.35504 0.595V4.165C5.35504 4.49362 5.08866 4.76 4.76004 4.76C4.43142 4.76 4.16504 4.49362 4.16504 4.165V0.595Z" fill="#005687"/>
  <path d="M13.685 0.595C13.685 0.266393 13.9514 0 14.28 0C14.6086 0 14.875 0.266393 14.875 0.595V4.165C14.875 4.49362 14.6086 4.76 14.28 4.76C13.9514 4.76 13.685 4.49362 13.685 4.165V0.595Z" fill="#005687"/>
  <path fill-rule="evenodd" clip-rule="evenodd" d="M5.35502 11.3051H4.16502V12.4951H5.35502V11.3051ZM4.16502 10.1151C3.50778 10.1151 2.97502 10.6478 2.97502 11.3051V12.4951C2.97502 13.1523 3.50778 13.6851 4.16502 13.6851H5.35502C6.01226 13.6851 6.54502 13.1523 6.54502 12.4951V11.3051C6.54502 10.6478 6.01226 10.1151 5.35502 10.1151H4.16502Z" fill="#005687"/>
  <path fill-rule="evenodd" clip-rule="evenodd" d="M10.115 11.3051H8.92502V12.4951H10.115V11.3051ZM8.92502 10.1151C8.26778 10.1151 7.73502 10.6478 7.73502 11.3051V12.4951C7.73502 13.1523 8.26778 13.6851 8.92502 13.6851H10.115C10.7723 13.6851 11.305 13.1523 11.305 12.4951V11.3051C11.305 10.6478 10.7723 10.1151 10.115 10.1151H8.92502Z" fill="#005687"/>
  <path fill-rule="evenodd" clip-rule="evenodd" d="M14.875 11.3051H13.685V12.4951H14.875V11.3051ZM13.685 10.1151C13.0278 10.1151 12.495 10.6478 12.495 11.3051V12.4951C12.495 13.1523 13.0278 13.6851 13.685 13.6851H14.875C15.5323 13.6851 16.065 13.1523 16.065 12.4951V11.3051C16.065 10.6478 15.5323 10.1151 14.875 10.1151H13.685Z" fill="#005687"/>
  <path fill-rule="evenodd" clip-rule="evenodd" d="M5.35502 16.065H4.16502V17.255H5.35502V16.065ZM4.16502 14.875C3.50778 14.875 2.97502 15.4077 2.97502 16.065V17.255C2.97502 17.9122 3.50778 18.445 4.16502 18.445H5.35502C6.01226 18.445 6.54502 17.9122 6.54502 17.255V16.065C6.54502 15.4077 6.01226 14.875 5.35502 14.875H4.16502Z" fill="#005687"/>
  <path fill-rule="evenodd" clip-rule="evenodd" d="M10.115 16.065H8.92502V17.255H10.115V16.065ZM8.92502 14.875C8.26778 14.875 7.73502 15.4077 7.73502 16.065V17.255C7.73502 17.9122 8.26778 18.445 8.92502 18.445H10.115C10.7723 18.445 11.305 17.9122 11.305 17.255V16.065C11.305 15.4077 10.7723 14.875 10.115 14.875H8.92502Z" fill="#005687"/>
  <path fill-rule="evenodd" clip-rule="evenodd" d="M2.38 3.57007H16.66C17.3172 3.57007 17.85 4.10283 17.85 4.76007V14.2801C18.2609 14.2801 18.6597 14.3321 19.04 14.43V4.76007C19.04 3.44563 17.9744 2.38007 16.66 2.38007H2.38C1.06556 2.38007 0 3.44563 0 4.76007V19.0401C0 20.3545 1.06556 21.4201 2.38 21.4201H13.7268C13.5138 21.0518 13.3486 20.6522 13.2399 20.2301H2.38C1.72278 20.2301 1.19 19.6973 1.19 19.0401V4.76007C1.19 4.10283 1.72278 3.57007 2.38 3.57007Z" fill="#005687"/>
  <path d="M0 4.76007C0 3.44563 1.06556 2.38007 2.38 2.38007H16.66C17.9744 2.38007 19.04 3.44563 19.04 4.76007V8.92507H0V4.76007Z" fill="#005687"/>
  <path fill-rule="evenodd" clip-rule="evenodd" d="M16.66 3.57007H2.38C1.72278 3.57007 1.19 4.10283 1.19 4.76007V7.73507H17.85V4.76007C17.85 4.10283 17.3172 3.57007 16.66 3.57007ZM2.38 2.38007C1.06556 2.38007 0 3.44563 0 4.76007V8.92507H19.04V4.76007C19.04 3.44563 17.9744 2.38007 16.66 2.38007H2.38Z" fill="#005687"/>
  <path fill-rule="evenodd" clip-rule="evenodd" d="M18.445 8.92502H0.594971V7.73502H18.445V8.92502Z" fill="#005687"/>
  <path fill-rule="evenodd" clip-rule="evenodd" d="M17.85 22.6099C19.8216 22.6099 21.42 21.0116 21.42 19.0399C21.42 17.0683 19.8216 15.4699 17.85 15.4699C15.8783 15.4699 14.28 17.0683 14.28 19.0399C14.28 21.0116 15.8783 22.6099 17.85 22.6099ZM17.85 23.7999C20.4789 23.7999 22.61 21.6688 22.61 19.0399C22.61 16.411 20.4789 14.2799 17.85 14.2799C15.2211 14.2799 13.09 16.411 13.09 19.0399C13.09 21.6688 15.2211 23.7999 17.85 23.7999Z" fill="#005687"/>
  <path fill-rule="evenodd" clip-rule="evenodd" d="M17.85 16.1713C18.1786 16.1713 18.445 16.4376 18.445 16.7663V19.3236L19.9037 20.3361C20.1736 20.5235 20.2406 20.8943 20.0531 21.1642C19.8658 21.4342 19.495 21.5011 19.2251 21.3137L17.255 19.9462V16.7663C17.255 16.4376 17.5214 16.1713 17.85 16.1713Z" fill="#005687"/>
</svg>