<svg viewBox="0 0 72 72" id="emoji" version="1.1" xmlns="http://www.w3.org/2000/svg" fill="#f6f4f4" stroke="#f6f4f4" transform="matrix(-1, 0, 0, 1, 0, 0)"><g id="SVGRepo_bgCarrier" stroke-width="0"></g><g id="SVGRepo_tracerCarrier" stroke-linecap="round" stroke-linejoin="round"></g><g id="SVGRepo_iconCarrier"> <g id="color"> <path fill="#f4f4f6" d="M17.9247,53.9753l-6.625-1.017c0,0-1.0625,0-1.0625-1.25s-0.0625-3.5625-0.0625-3.5625 s0.6832-9.4798,2.625-10.625c1.625-0.9583,46.544-0.7036,53.1365-0.5781c0.4728,0.009,0.8668,0.3478,0.9496,0.8133 c0.2375,1.3354,0.6809,4.0966,0.7264,6.3273c0.0625,3.0625-0.125,8-0.125,8l-4.7646,1.7952"></path> <path fill="#c1c1c7" d="M13.1331,38.0833c0,0-2.3125,3.1667-2.125,9.0417c0,0,3.9166,1.4583,9.9791-4.3125l42.9375,1.3125 c0,0,2.2292-1.2292,2.3334-6.2917C66.2581,37.8333,20.3831,35.6667,13.1331,38.0833z"></path> <line x1="50.3414" x2="30.1747" y1="53.0606" y2="53.0065" fill="none"></line> <circle cx="56.4803" cy="53.2917" r="3" fill="#D0CFCE"></circle> <circle cx="23.9803" cy="53.2917" r="3" fill="#D0CFCE"></circle> <rect x="40.4872" y="40.3177" width="5.0625" height="12.6667" fill="#c1c1c7"></rect> <path fill="#cfcec9" d="M11.1591,50.6562h2.5783l1.0723-2.3125h-2.8795c-0.4259,0-0.7711,0.3992-0.7711,0.8916 C11.1591,49.2353,11.1591,50.6562,11.1591,50.6562z"></path> </g> <g id="hair"></g> <g id="skin"></g> <g id="skin-shadow"></g> <g id="line"> <path fill="none" stroke="#212121" stroke-linecap="round" stroke-linejoin="round" stroke-miterlimit="10" stroke-width="2" d="M17.9247,52.9753l-6.625-0.017c0,0-1.0625,0-1.0625-1.25s-0.0625-3.5625-0.0625-3.5625s0.6832-9.4798,2.625-10.625 c1.625-0.9583,46.544-0.7036,53.1365-0.5781c0.4728,0.009,0.8668,0.3478,0.9496,0.8133c0.2375,1.3354,0.6809,4.0966,0.7264,6.3273 c0.0625,3.0625-0.125,8-0.125,8l-4.7646,0.7952"></path> <line x1="50.3414" x2="30.1747" y1="53.0606" y2="53.0065" fill="none" stroke="#212121" stroke-linecap="round" stroke-linejoin="round" stroke-miterlimit="10" stroke-width="2"></line> <polyline fill="none" stroke="#212121" stroke-linecap="round" stroke-linejoin="round" stroke-miterlimit="10" stroke-width="2" points="11.2997,40.5 6.7372,40.8125 5.2997,44.125"></polyline> <circle cx="56.4803" cy="53.2917" r="3" fill="none" stroke="#212121" stroke-linecap="round" stroke-linejoin="round" stroke-miterlimit="10" stroke-width="2"></circle> <circle cx="23.9803" cy="53.2917" r="3" fill="none" stroke="#212121" stroke-linecap="round" stroke-linejoin="round" stroke-miterlimit="10" stroke-width="2"></circle> <path fill="none" stroke="#212121" stroke-linecap="round" stroke-linejoin="round" stroke-miterlimit="10" stroke-width="2" d="M45.5493,43.0283l18.1254,0.1592c0,0,0.0142-0.0017,0.0403-0.0069"></path> <path fill="none" stroke="#212121" stroke-linecap="round" stroke-linejoin="round" stroke-miterlimit="10" stroke-width="2" d="M45.5493,43.0283"></path> <path fill="none" stroke="#212121" stroke-linecap="round" stroke-linejoin="round" stroke-miterlimit="10" stroke-width="2" d="M40.4872,42.9838"></path> <path fill="none" stroke="#212121" stroke-linecap="round" stroke-linejoin="round" stroke-miterlimit="10" stroke-width="2" d="M13.2782,46.3109c0,0,4.0241-0.9494,7.709-3.4984l19.5,0.1713"></path> <path fill="none" stroke="#212121" stroke-linecap="round" stroke-linejoin="round" stroke-miterlimit="10" stroke-width="2" d="M17.9247,52.9753l-6.625-0.017c0,0-1.0625,0-1.0625-1.25s-0.0625-3.5625-0.0625-3.5625s0.6832-9.4798,2.625-10.625 c1.625-0.9583,46.544-0.7036,53.1365-0.5781c0.4728,0.009,0.8668,0.3478,0.9496,0.8133c0.2375,1.3354,0.6809,4.0966,0.7264,6.3273 c0.0625,3.0625-0.125,8-0.125,8"></path> <rect x="40.4872" y="40.3177" width="5.0625" height="12.6667" fill="none" stroke="#212121" stroke-linecap="round" stroke-linejoin="round" stroke-miterlimit="10" stroke-width="2"></rect> <polyline fill="none" stroke="#212121" stroke-linecap="round" stroke-linejoin="round" stroke-miterlimit="10" stroke-width="2" points="11.1591,50.6562 13.7374,50.6562 14.8097,49.2948"></polyline> </g> </g></svg>