<svg xmlns="http://www.w3.org/2000/svg" width="32" height="24" viewBox="0 0 32 24" fill="none">
  <path d="M2 10C1.46957 10 0.96086 10.2107 0.585787 10.5858C0.210714 10.9609 0 11.4696 0 12C0 12.5304 0.210714 13.0391 0.585787 13.4142C0.96086 13.7893 1.46957 14 2 14V10ZM30 14C30.5304 14 31.0391 13.7893 31.4142 13.4142C31.7893 13.0391 32 12.5304 32 12C32 11.4696 31.7893 10.9609 31.4142 10.5858C31.0391 10.2107 30.5304 10 30 10V14ZM2 0C1.46957 0 0.96086 0.210714 0.585787 0.585787C0.210714 0.96086 0 1.46957 0 2C0 2.53043 0.210714 3.03914 0.585787 3.41421C0.96086 3.78929 1.46957 4 2 4V0ZM30 4C30.5304 4 31.0391 3.78929 31.4142 3.41421C31.7893 3.03914 32 2.53043 32 2C32 1.46957 31.7893 0.96086 31.4142 0.585787C31.0391 0.210714 30.5304 0 30 0V4ZM2 20C1.46957 20 0.96086 20.2107 0.585787 20.5858C0.210714 20.9609 0 21.4696 0 22C0 22.5304 0.210714 23.0391 0.585787 23.4142C0.96086 23.7893 1.46957 24 2 24V20ZM30 24C30.5304 24 31.0391 23.7893 31.4142 23.4142C31.7893 23.0391 32 22.5304 32 22C32 21.4696 31.7893 20.9609 31.4142 20.5858C31.0391 20.2107 30.5304 20 30 20V24ZM2 14H30V10H2V14ZM2 4H30V0H2V4ZM2 24H30V20H2V24Z" fill="white"/>
</svg>