<svg xmlns="http://www.w3.org/2000/svg" width="22" height="22" viewBox="0 0 22 22" fill="none">
  <path d="M11.2766 20.1667H11.185C9.9278 20.1571 8.68516 19.8968 7.52983 19.401C6.3745 18.9052 5.32972 18.1838 4.45665 17.2792C2.83767 15.5479 1.91737 13.2782 1.87336 10.9083C1.82935 8.53832 2.66474 6.23608 4.21831 4.44584C5.21921 3.32415 6.47747 2.46224 7.88498 1.93417C8.04921 1.87097 8.22816 1.85638 8.40046 1.89214C8.57276 1.9279 8.73113 2.0125 8.85665 2.13584C8.9729 2.25438 9.05477 2.40227 9.09351 2.56372C9.13226 2.72517 9.12643 2.89411 9.07665 3.0525C8.57427 4.42836 8.47474 5.91896 8.78973 7.3494C9.10472 8.77983 9.82116 10.0908 10.855 11.1283C11.8984 12.159 13.2125 12.873 14.645 13.1877C16.0774 13.5025 17.5698 13.405 18.9491 12.9067C19.1133 12.8489 19.2906 12.839 19.4601 12.8783C19.6297 12.9175 19.7846 13.0042 19.9067 13.1282C20.0289 13.2523 20.1131 13.4085 20.1497 13.5787C20.1863 13.7488 20.1737 13.9259 20.1133 14.0892C19.645 15.3392 18.9135 16.474 17.9683 17.4167C17.0891 18.2933 16.0453 18.9875 14.8969 19.4594C13.7485 19.9314 12.5182 20.1717 11.2766 20.1667ZM6.83998 4.51C6.37952 4.83294 5.95809 5.20823 5.58415 5.62834C4.32331 7.07313 3.64395 8.93468 3.67782 10.852C3.7117 12.7693 4.45639 14.6057 5.76748 16.005C6.47196 16.7367 7.31597 17.3197 8.24963 17.7196C9.18328 18.1195 10.1876 18.3282 11.2033 18.3333H11.2766C12.4923 18.3326 13.6903 18.042 14.7712 17.4857C15.8521 16.9293 16.7847 16.1232 17.4916 15.1342C16.051 15.3209 14.5867 15.1748 13.2112 14.7074C11.8358 14.2399 10.5857 13.4634 9.55719 12.4375C8.52863 11.4116 7.74889 10.1636 7.27785 8.78932C6.80682 7.41508 6.65703 5.95116 6.83998 4.51Z" fill="white"/>
</svg>