<svg xmlns="http://www.w3.org/2000/svg" width="32" height="22" viewBox="0 0 32 22" fill="none">
  <path d="M27.8865 0.89355C27.6932 0.617712 27.4363 0.392498 27.1375 0.236962C26.8388 0.0814265 26.5069 0.000146948 26.1701 0H2.09663C1.54114 0.000623883 1.00857 0.221571 0.615771 0.614368C0.222975 1.00716 0.00202769 1.53973 0.00140381 2.09523V18.3333H2.69129C2.87536 19.3614 3.41512 20.292 4.21611 20.9624C5.01711 21.6327 6.02832 22 7.0728 22C8.11728 22 9.1285 21.6327 9.92949 20.9624C10.7305 20.292 11.2702 19.3614 11.4543 18.3333H19.4531C19.6372 19.3614 20.1769 20.292 20.9779 20.9624C21.7789 21.6327 22.7902 22 23.8346 22C24.8791 22 25.8903 21.6327 26.6913 20.9624C27.4923 20.292 28.0321 19.3614 28.2162 18.3333H31.4298V6.45075C31.4303 6.12827 31.3311 5.81352 31.1458 5.54961L27.8865 0.89355ZM10.7395 2.09523H20.168V8.38092H10.7395V2.09523ZM2.09663 2.09523H8.64422V8.38092H2.09663V2.09523ZM7.0728 19.9047C6.60661 19.9047 6.15088 19.7664 5.76325 19.5074C5.37562 19.2484 5.0735 18.8803 4.8951 18.4496C4.71669 18.0189 4.67001 17.5449 4.76096 17.0877C4.85191 16.6305 5.07641 16.2105 5.40606 15.8808C5.73571 15.5511 6.15571 15.3267 6.61295 15.2357C7.07019 15.1448 7.54413 15.1914 7.97484 15.3698C8.40555 15.5482 8.77368 15.8504 9.03269 16.238C9.29169 16.6256 9.42993 17.0813 9.42994 17.5475C9.42924 18.1725 9.18068 18.7716 8.73878 19.2135C8.29688 19.6554 7.69774 19.904 7.0728 19.9047ZM23.8346 19.9047C23.3684 19.9047 22.9127 19.7664 22.5251 19.5074C22.1375 19.2484 21.8353 18.8803 21.6569 18.4496C21.4785 18.0189 21.4318 17.5449 21.5228 17.0877C21.6137 16.6305 21.8382 16.2105 22.1679 15.8808C22.4975 15.5511 22.9175 15.3267 23.3748 15.2357C23.832 15.1448 24.306 15.1914 24.7367 15.3698C25.1674 15.5482 25.5355 15.8504 25.7945 16.238C26.0535 16.6256 26.1918 17.0813 26.1918 17.5475C26.1911 18.1725 25.9425 18.7716 25.5006 19.2135C25.0587 19.6554 24.4596 19.904 23.8346 19.9047ZM29.3346 16.238H28.0902C27.8102 15.3279 27.2458 14.5315 26.4799 13.9658C25.714 13.4001 24.7868 13.0948 23.8346 13.0948C22.8824 13.0948 21.9553 13.4001 21.1894 13.9658C20.4235 14.5315 19.8591 15.3279 19.5791 16.238H11.3283C11.0484 15.3279 10.484 14.5315 9.71805 13.9658C8.95212 13.4001 8.025 13.0948 7.0728 13.0948C6.1206 13.0948 5.19348 13.4001 4.42755 13.9658C3.66163 14.5315 3.09724 15.3279 2.81726 16.238H2.09663V10.4761H29.3346V16.238ZM29.3346 8.38092H22.2632V2.09523H26.1701L29.3346 6.61588V8.38092Z" fill="white"/>
</svg>