<svg xmlns="http://www.w3.org/2000/svg" width="24" height="24" viewBox="0 0 24 24" fill="none">
  <path d="M21.65 12C21.65 17.3295 17.3295 21.65 12 21.65C6.67047 21.65 2.35 17.3295 2.35 12C2.35 6.67047 6.67047 2.35 12 2.35C17.3295 2.35 21.65 6.67047 21.65 12ZM12 23.25C18.2132 23.25 23.25 18.2132 23.25 12C23.25 5.78679 18.2132 0.75 12 0.75C5.78679 0.75 0.75 5.78679 0.75 12C0.75 18.2132 5.78679 23.25 12 23.25Z" fill="white" stroke="white" stroke-width="0.5"/>
  <path d="M6.49946 11.2C6.05763 11.2 5.69946 11.5582 5.69946 12C5.69946 12.4419 6.05763 12.8 6.49946 12.8H17.4995C17.9413 12.8 18.2995 12.4419 18.2995 12C18.2995 11.5582 17.9413 11.2 17.4995 11.2H6.49946Z" fill="white" stroke="white" stroke-width="0.5"/>
  <path d="M12.7995 6.50001C12.7995 6.05818 12.4413 5.70001 11.9995 5.70001C11.5576 5.70001 11.1995 6.05818 11.1995 6.50001V17.5C11.1995 17.9419 11.5576 18.3 11.9995 18.3C12.4413 18.3 12.7995 17.9419 12.7995 17.5V6.50001Z" fill="white" stroke="white" stroke-width="0.5"/>
</svg>