<svg xmlns="http://www.w3.org/2000/svg" width="9" height="61" viewBox="0 0 9 61" fill="none">
  <line x1="4.5" y1="28.5" x2="4.5" y2="7.5" stroke="#898989" stroke-dasharray="2 2"/>
  <line x1="4.5" y1="53" x2="4.5" y2="32" stroke="#898989" stroke-dasharray="2 2"/>
  <path d="M9 4.5C9 6.98528 6.98528 9 4.5 9C2.01472 9 0 6.98528 0 4.5C0 2.01472 2.01472 0 4.5 0C6.98528 0 9 2.01472 9 4.5Z" fill="#042F40"/>
  <path d="M7.5 30C7.5 31.6569 6.15685 33 4.5 33C2.84315 33 1.5 31.6569 1.5 30C1.5 28.3431 2.84315 27 4.5 27C6.15685 27 7.5 28.3431 7.5 30Z" fill="#898989"/>
  <path d="M9 56.5C9 58.9853 6.98528 61 4.5 61C2.01472 61 0 58.9853 0 56.5C0 54.0147 2.01472 52 4.5 52C6.98528 52 9 54.0147 9 56.5Z" fill="#1FBF83"/>
</svg>