<svg xmlns="http://www.w3.org/2000/svg" width="28" height="24" viewBox="0 0 28 24" fill="none">
  <path d="M22.2869 15H17.1437C16.2008 15 15.4294 14.325 15.4294 13.5C15.4294 12.675 16.2008 12 17.1437 12H22.2869C22.2869 12 27.43 6.98438 27.43 4.5C27.43 2.01562 25.1263 0 22.2869 0C19.4474 0 17.1437 2.01562 17.1437 4.5C17.1437 5.69531 18.3331 7.47188 19.5707 9H17.1437C14.3097 9 12.0006 11.0203 12.0006 13.5C12.0006 15.9797 14.3097 18 17.1437 18H22.2869C23.2298 18 24.0013 18.675 24.0013 19.5C24.0013 20.325 23.2298 21 22.2869 21H9.93802C9.08083 22.1625 8.12721 23.2359 7.40396 24H22.2869C25.121 24 27.43 21.9797 27.43 19.5C27.43 17.0203 25.121 15 22.2869 15ZM22.2869 3C23.2351 3 24.0013 3.67031 24.0013 4.5C24.0013 5.32969 23.2351 6 22.2869 6C21.3386 6 20.5725 5.32969 20.5725 4.5C20.5725 3.67031 21.3386 3 22.2869 3ZM5.14313 12C2.30369 12 0 14.0156 0 16.5C0 18.9844 5.14313 24 5.14313 24C5.14313 24 10.2863 18.9844 10.2863 16.5C10.2863 14.0156 7.98256 12 5.14313 12ZM5.14313 18C4.19486 18 3.42875 17.3297 3.42875 16.5C3.42875 15.6703 4.19486 15 5.14313 15C6.09139 15 6.8575 15.6703 6.8575 16.5C6.8575 17.3297 6.09139 18 5.14313 18Z" fill="white"/>
</svg>